# xmcd
#
# Track frame offsets:
#	150
#	39047
#	119710
#	169588
#	217335
#	243170
#	279267
#	316656
#
# Disc length: 4556 seconds
#
# Revision: 0
# Processed by: cddbd v1.5.2PL0 Copyright (c) Steve Scherf et al.
# Submitted via: audiograbber 1.83.01
#
DISCID=6711ca08
DTITLE=Grateful Dead - 93-09-21 Madison Square Garden, New York NY
DYEAR=1900
DGENRE=
TTITLE0=Playing In The Band
TTITLE1=Terrapin Station
TTITLE2=Drums
TTITLE3=Space
TTITLE4=The Last Time
TTITLE5=Stella Blue
TTITLE6=Sugar Magnolia
TTITLE7=The Weight
EXTD=
EXTT0=
EXTT1=
EXTT2=
EXTT3=
EXTT4=
EXTT5=
EXTT6=
EXTT7=
PLAYORDER=
